<svg width="24" height="16" viewBox="0 0 24 16" fill="none" xmlns="http://www.w3.org/2000/svg">
<path opacity="0.3" d="M23.4984 2.29841C23.2224 1.4498 22.4088 0.780775 21.3768 0.553822C19.5048 0.141358 12 0.141357 12 0.141357C12 0.141357 4.4952 0.141358 2.6232 0.553822C1.5912 0.780775 0.7776 1.4498 0.5016 2.29841C-3.57628e-08 3.83774 0 8.0354 0 8.0354C0 8.0354 -3.57628e-08 12.2331 0.5016 13.7724C0.7776 14.621 1.5912 15.29 2.6232 15.517C4.4952 15.9295 12 15.9295 12 15.9295C12 15.9295 19.5048 15.9295 21.3768 15.517C22.41 15.29 23.2224 14.621 23.4984 13.7724C24 12.2331 24 8.0354 24 8.0354C24 8.0354 24 3.83774 23.4984 2.29841ZM9.6 11.4535V4.61728L16.8 8.0354L9.6 11.4535Z" fill="white"/>
</svg>
