<svg width="18" height="16" viewBox="0 0 18 16" fill="none" xmlns="http://www.w3.org/2000/svg">
<path opacity="0.3" d="M9 0.141357C4.0293 0.141357 0 3.67552 0 8.0354C0 12.3953 4.0293 15.9295 9 15.9295C13.9707 15.9295 18 12.3953 18 8.0354C18 3.67552 13.9707 0.141357 9 0.141357ZM13.9635 11.193H12.7854C12.339 11.193 12.1977 10.8054 11.4192 10.0089C10.7442 9.31819 10.395 9.21951 10.2231 9.21951C9.9819 9.21951 9.9 9.27161 9.9 9.58816V10.7612C9.9 11.0241 9.8226 11.193 9.0675 11.193C7.821 11.193 6.4125 10.4526 5.3442 9.16978C3.87 7.40072 3.6 5.86217 3.6 5.57799C3.6 5.42011 3.6567 5.27249 4.0005 5.27249H5.1894C5.4873 5.27249 5.6016 5.38853 5.7159 5.69403C6.2442 7.246 7.0317 8.43011 7.4322 8.43011C7.5807 8.43011 7.65 8.36695 7.65 8.01962V6.58921C7.6041 5.85191 7.2 5.78876 7.2 5.5251C7.2 5.398 7.2954 5.27249 7.479 5.27249H9.5706C9.8226 5.27249 9.9 5.39879 9.9 5.67272V7.71964C9.9 7.95094 10.1016 8.0354 10.1808 8.0354C10.3293 8.0354 10.4688 8.04172 10.7433 7.78832C11.5893 6.91366 12.3237 5.58825 12.3237 5.58825C12.4047 5.43037 12.5415 5.27249 12.8394 5.27249H14.0175C14.2812 5.27249 14.3928 5.3759 14.4 5.51957C14.4027 5.5693 14.3928 5.62456 14.3721 5.68377C14.2236 6.31529 12.7008 8.19092 12.7125 8.19092C12.6477 8.28801 12.6045 8.35748 12.6 8.4309C12.5955 8.50036 12.6279 8.57299 12.7125 8.67561C12.8376 8.83349 13.1112 9.12399 13.3875 9.41765C13.887 9.94734 14.2875 10.5031 14.3748 10.7304C14.3937 10.792 14.4018 10.8481 14.4 10.8978C14.3937 11.092 14.2362 11.193 13.9635 11.193Z" fill="white"/>
</svg>
