<svg width="20" height="16" viewBox="0 0 20 16" fill="none" xmlns="http://www.w3.org/2000/svg">
<path opacity="0.3" d="M18.3012 0.142794C18.0122 0.153808 17.747 0.226636 17.514 0.307095C17.2987 0.381368 16.5258 0.666016 15.2949 1.11834C14.0641 1.57065 12.4332 2.17037 10.6947 2.81099C7.21786 4.09221 3.31076 5.53342 1.30876 6.27159C1.24001 6.29669 0.960802 6.37158 0.652427 6.57794C0.343337 6.78479 0 7.23369 0 7.72463C0 8.12067 0.225643 8.52401 0.498111 8.75494C0.770579 8.98587 1.04672 9.09384 1.27751 9.17425V9.17254C2.05764 9.44486 4.38735 10.2616 4.94204 10.4562C5.13879 10.9727 5.98345 13.1843 6.18439 13.7405H6.18243C6.32446 14.1341 6.4629 14.3906 6.65515 14.6048C6.75127 14.7118 6.86601 14.8089 7.00676 14.8855C7.06076 14.9148 7.12055 14.9376 7.18061 14.959C7.18898 14.9622 7.1976 14.9629 7.206 14.9659L7.18256 14.9608C7.19997 14.9669 7.2156 14.9759 7.23335 14.9813C7.26227 14.99 7.28231 14.9897 7.32125 14.9967C7.45827 15.0336 7.59505 15.0583 7.72169 15.0583C8.26537 15.0583 8.59876 14.7999 8.59876 14.7999L8.62024 14.7862L10.9682 13.0456L13.8436 15.3766C13.8961 15.4416 14.3075 15.9295 15.2598 15.9295C15.828 15.9295 16.2772 15.683 16.5646 15.4246C16.852 15.1661 17.0311 14.9016 17.1116 14.5432L17.1135 14.5414C17.1777 14.2521 19.9303 2.1418 19.9303 2.1418L19.9244 2.16234C20.0101 1.8273 20.0354 1.50329 19.9342 1.1731C19.833 0.842916 19.5599 0.520688 19.231 0.351594C18.9021 0.1825 18.5902 0.131778 18.3012 0.142794ZM17.9066 2.06136C17.7978 2.53983 15.3321 13.3934 15.1797 14.0742L11.0268 10.7077L8.2198 12.7872L8.99725 10.1241C8.99725 10.1241 14.3605 5.36757 14.6835 5.09067C14.9436 4.86897 14.998 4.79126 14.998 4.71415C14.998 4.61162 14.9378 4.53786 14.7988 4.53786C14.6738 4.53786 14.504 4.64283 14.414 4.6919C13.2702 5.31669 8.39845 7.74914 6.00272 8.9432C5.85855 8.89255 3.69396 8.131 2.52767 7.72292C4.6022 6.95794 8.1583 5.64706 11.4702 4.42662C13.2084 3.78612 14.8388 3.18586 16.0685 2.73397C17.1064 2.35252 17.6479 2.15501 17.9066 2.06136ZM15.1504 14.1991H15.1523L15.1504 14.2043C15.1516 14.1986 15.1494 14.2036 15.1504 14.1991Z" fill="white"/>
</svg>
