<svg width="30" height="43" viewBox="0 0 30 43" fill="none" xmlns="http://www.w3.org/2000/svg">
<path d="M15 21.5C15 19.8495 15.6848 18.2665 16.9038 17.0994C18.1228 15.9323 19.7761 15.2766 21.5 15.2766C23.2239 15.2766 24.8772 15.9323 26.0962 17.0994C27.3152 18.2665 28 19.8495 28 21.5C28 23.1506 27.3152 24.7335 26.0962 25.9006C24.8772 27.0677 23.2239 27.7234 21.5 27.7234C19.7761 27.7234 18.1228 27.0677 16.9038 25.9006C15.6848 24.7335 15 23.1506 15 21.5Z" stroke="#762596" stroke-width="4"/>
<path d="M2 21.5C2 19.8495 2.68482 18.2665 3.90381 17.0994C5.12279 15.9323 6.77609 15.2766 8.5 15.2766H15V21.5C15 23.1506 14.3152 24.7335 13.0962 25.9006C11.8772 27.0677 10.2239 27.7234 8.5 27.7234C6.77609 27.7234 5.12279 27.0677 3.90381 25.9006C2.68482 24.7335 2 23.1506 2 21.5Z" stroke="#762596" stroke-width="4"/>
<path d="M15 2V15.2766H21.5C23.2239 15.2766 24.8772 14.5772 26.0962 13.3323C27.3152 12.0874 28 10.3989 28 8.6383C28 6.87771 27.3152 5.18923 26.0962 3.94431C24.8772 2.69939 23.2239 2 21.5 2L15 2Z" stroke="#762596" stroke-width="4"/>
<path d="M2 8.6383C2 10.3989 2.68482 12.0874 3.90381 13.3323C5.12279 14.5772 6.77609 15.2766 8.5 15.2766H15V2H8.5C6.77609 2 5.12279 2.69939 3.90381 3.94431C2.68482 5.18923 2 6.87771 2 8.6383Z" stroke="#762596" stroke-width="4"/>
<path d="M2 34.3617C2 36.1223 2.68482 37.8107 3.90381 39.0557C5.12279 40.3006 6.77609 41 8.5 41H15V27.7234H8.5C6.77609 27.7234 5.12279 28.4228 3.90381 29.6677C2.68482 30.9126 2 32.6011 2 34.3617Z" stroke="#762596" stroke-width="4"/>
</svg>
